Coordinates
version=1
nRows=14
nColumns=36
inDegrees=yes

Units are S.I. units (second, meters, Newtons, ...)
If the header above contains a line with 'inDegrees', this indicates whether rotational values are in degrees (yes) or radians (no).

endheader
time	pelvis_tilt	pelvis_list	pelvis_rotation	pelvis_tx	pelvis_ty	pelvis_tz	hip_flexion_r	hip_adduction_r	hip_rotation_r	knee_angle_r	knee_angle_r_beta	ankle_angle_r	subtalar_angle_r	mtp_angle_r	hip_flexion_l	hip_adduction_l	hip_rotation_l	knee_angle_l	knee_angle_l_beta	ankle_angle_l	subtalar_angle_l	mtp_angle_l	lumbar_extension	lumbar_bending	lumbar_rotation	arm_flex_r	arm_add_r	arm_rot_r	elbow_flex_r	pro_sup_r	arm_flex_l	arm_add_l	arm_rot_l	elbow_flex_l	pro_sup_l
      1.95000000	     -5.60028094	      9.66323685	     -1.16295782	      1.64911652	      0.86648265	      0.03611370	     61.71371151	    -17.45957094	      4.34886016	     27.08271298	      0.47268251	      0.44793449	     11.16932334	     -7.49994107	     40.06474552	     14.99947926	     -2.04336526	     54.33864487	      0.94838826	     31.93384127	      4.33819899	     -7.49994107	    -28.60124727	    -14.90314749	    -11.91918407	     81.75253671	     -3.18247205	     56.33077277	    128.02545392	     84.92106919	     99.21384846	    -18.43857395	     61.13168653	    130.92372472	     81.91250824
      1.96666670	     -5.70560497	     10.23307184	     -0.41188789	      1.64709200	      0.85886498	      0.03587950	     62.99811300	    -18.15189610	      4.80574139	     27.77712974	      0.48480237	     -0.01171173	     11.06685529	     -7.49994173	     41.92583238	     15.68223873	     -2.27437322	     56.61280243	      0.98807980	     32.50968359	      3.75901080	     -7.49994173	    -29.88265640	    -15.15842730	    -12.52811921	     83.26187078	     -2.75466623	     56.69965857	    127.97783343	     84.99124599	    100.92771751	    -17.24611334	     60.68978332	    130.29565472	     81.83697302
      1.98333330	     -6.08605732	     10.98385094	      0.23468941	      1.64219996	      0.85337794	      0.03836674	     64.65825281	    -18.71295604	      5.63750009	     28.59548543	      0.49908537	     -0.33736269	     10.55751085	     -7.49994466	     43.91594000	     16.38717217	     -2.73117510	     58.63246783	      1.02332961	     32.75473094	      3.07785607	     -7.49994466	    -31.07570181	    -15.80386266	    -13.40755956	     84.61589812	     -2.76632582	     57.31375027	    128.50275486	     84.67008758	    103.36087658	    -16.72287223	     61.66912470	    129.97325449	     81.34566665
      2.00000000	     -6.48401639	     11.67406693	      1.01145950	      1.63644231	      0.84782697	      0.04032242	     66.24536198	    -19.34518283	      6.24887541	     29.45132445	      0.51402258	     -0.96094190	     10.01088561	     -7.49994914	     45.85623270	     17.01311780	     -3.25201316	     60.51950459	      1.05626462	     32.88723898	      2.33931747	     -7.49994914	    -32.39805468	    -16.18591436	    -14.37392104	     85.94723871	     -2.53266778	     57.23580850	    128.77386542	     83.86001158	    105.82252354	    -16.29171165	     62.10475506	    130.07344070	     80.42431602
      2.01666670	     -6.68509933	     12.21126527	      1.73781137	      1.63245606	      0.84470638	      0.03715225	     67.38273296	    -20.01492626	      6.50750751	     30.08610041	      0.52510151	     -1.68313406	      9.79645040	     -7.49994955	     47.43180541	     17.60843858	     -3.55562355	     62.14381982	      1.08461427	     32.88547166	      1.92324851	     -7.49994955	    -33.81427468	    -16.10043252	    -14.88439456	     86.81079881	     -2.68869058	     57.72808470	    128.33881187	     83.95151115	    106.91035569	    -15.43100318	     61.61554674	    129.75742956	     80.42425184
      2.03333330	     -6.87412730	     13.08164108	      2.41076337	      1.62780215	      0.84093451	      0.03311781	     68.56548098	    -20.87059832	      7.31964524	     30.73308588	      0.53639354	     -2.28961974	      9.44306335	     -7.49995082	     48.86023511	     18.55387582	     -4.04044836	     63.33609413	      1.10542338	     32.35350966	      1.03462480	     -7.49995082	    -35.27142270	    -16.26557918	    -15.45836715	     88.19470164	     -3.18667758	     59.47859701	    129.50849639	     84.34306836	    107.91187593	    -14.62501756	     61.87559020	    129.73476471	     80.63838056
      2.05000000	     -7.00397174	     13.70951065	      3.00571900	      1.62374111	      0.83019647	      0.02985419	     69.70032023	    -21.65922442	      7.88287631	     31.50842243	      0.54992571	     -2.88235735	      9.26031988	     -7.49997053	     50.32054927	     19.25638734	     -4.57020627	     64.71574913	      1.12950290	     32.00576017	      0.45703722	     -7.49997053	    -36.46638437	    -16.16425036	    -16.16743416	     89.73148073	     -2.81010973	     58.97607209	    129.87996550	     88.14581522	    109.52583365	    -13.77714735	     61.61454709	    128.75440107	     83.77039391
      2.06666670	     -7.13966589	     14.37023963	      3.58609149	      1.61883516	      0.82117570	      0.02577027	     70.93369277	    -22.46702112	      8.60105273	     32.38610750	      0.56524421	     -3.50290257	      8.96198260	     -7.49997442	     51.92531710	     19.97115808	     -5.27815523	     66.17703135	      1.15500709	     31.66605988	     -0.07816212	     -7.49997442	    -37.53133785	    -15.79802671	    -16.55768026	     91.72326495	     -3.42507099	     59.20110795	    129.41369395	     86.64942005	    110.99372581	    -12.91217965	     60.40846942	    127.69238043	     82.66206143
      2.08333330	     -7.13238794	     15.01088677	      4.13042070	      1.61543964	      0.82027203	      0.02276332	     71.87422486	    -23.35543521	      9.19317590	     33.11759870	      0.57801114	     -3.94163549	      8.93267841	     -7.49997638	     53.20524607	     20.75349535	     -5.86833437	     67.34082783	      1.17531917	     31.17011274	     -0.66855493	     -7.49997638	    -38.78313975	    -15.31674218	    -17.20945776	     92.54963516	     -4.04396791	     60.87303853	    129.73074776	     85.98243470	    111.16818382	    -12.36053472	     61.09171826	    127.32834876	     82.11126505
      2.10000000	     -7.18440584	     15.53009763	      4.57365944	      1.61435777	      0.81704998	      0.02308365	     72.66074289	    -24.12561233	      9.52879583	     33.57458855	      0.58598712	     -4.33318494	      9.14311889	     -7.49997811	     54.25488948	     21.38299354	     -6.36958730	     68.18966889	      1.19013424	     30.71987867	     -1.22668483	     -7.49997811	    -39.74667904	    -14.94349117	    -17.81253546	     93.44551365	     -3.77442181	     62.54243262	    129.81001566	     85.84791762	    111.90922610	    -12.01782388	     61.87315206	    126.60742376	     82.13544437
      2.11666670	     -7.45073616	     15.81085781	      4.98349045	      1.61112868	      0.81090928	      0.02008534	     73.45938837	    -24.71125210	      9.58679520	     33.96358642	      0.59277641	     -4.61111588	      9.32554761	     -7.49997837	     55.36338091	     21.72056748	     -6.74940298	     68.97818332	      1.20389641	     30.48098002	     -1.41525411	     -7.49997837	    -40.33164366	    -14.39355546	    -18.07202101	     94.20908118	     -3.44746181	     62.79780819	    129.81896573	     86.05568378	    112.38815097	    -11.50974876	     61.92702762	    126.24653611	     82.34774355
      2.13333330	     -7.84990012	     16.28024733	      5.35219263	      1.61422684	      0.80814778	      0.02388120	     74.35511939	    -25.28537897	      9.85556149	     34.23542918	      0.59752096	     -4.68271736	      9.73614934	     -7.49998638	     56.32887799	     22.08943077	     -7.29433645	     69.47219481	      1.21251854	     30.21749942	     -1.63625601	     -7.49998638	    -40.49904182	    -14.39927028	    -18.31564000	     94.01095014	     -1.96659271	     63.68860625	    129.78467134	     93.10635542	    111.21798728	    -11.33523009	     61.38562238	    126.41675858	     89.82589425
      2.15000000	     -8.23147959	     16.62418335	      5.61798701	      1.61496594	      0.80776819	      0.02434746	     74.91824155	    -25.69641256	      9.94071860	     34.20187927	      0.59693540	     -4.66012432	     10.07435788	     -7.49998804	     56.97655962	     22.33483223	     -7.63212385	     69.74667089	      1.21730905	     30.18572340	     -1.59868616	     -7.49998804	    -40.72212942	    -14.36854197	    -18.00958439	     93.72924648	     -2.11304104	     64.06020272	    129.42463265	     91.33190050	    110.45117437	    -10.53328245	     60.99944285	    126.57029133	     88.07516028
      2.16666670	     -8.66996076	     16.99485917	      5.84170315	      1.61076304	      0.80634419	      0.02080081	     75.56859474	    -26.06449683	     10.06144656	     34.18912000	      0.59671271	     -4.64909224	     10.45602591	     -7.49998841	     57.69637081	     22.59884901	     -8.00382998	     69.88599240	      1.21974067	     29.77114470	     -1.83096653	     -7.49998841	    -41.01157870	    -14.23990200	    -17.88834415	     93.45441669	     -2.59260447	     64.50944945	    128.30845726	     91.50012092	    109.91606594	    -10.43929755	     61.96933532	    125.84366040	     88.58412871
